<svg width="24" height="24" fill="none" xmlns="http://www.w3.org/2000/svg"><g clip-path="url(#clip0)"><path d="M12 .006c-5.033 0-9.14 4.104-9.14 9.138 0 1.997.633 3.895 1.828 5.483l6.748 9.092c.099.14.366.281.563.281.21 0 .464-.155.562-.281.028-.042 6.819-9.19 6.875-9.275.014 0 .014 0 .014-.014a9.096 9.096 0 001.687-5.286c0-5.033-4.105-9.138-9.138-9.138zm0 14.059a4.926 4.926 0 01-4.92-4.92A4.926 4.926 0 0112 4.223a4.926 4.926 0 014.92 4.92A4.926 4.926 0 0112 14.065z" fill="#FF808B"/><path d="M12 0v4.218a4.926 4.926 0 014.92 4.92A4.926 4.926 0 0112 14.06v9.935c.21 0 .464-.154.562-.28.028-.043 6.819-9.191 6.875-9.275.014 0 .014 0 .014-.014a9.096 9.096 0 001.687-5.287C21.138 4.105 17.033 0 12 0z" fill="#FF585D"/></g><defs><clipPath id="clip0"><path fill="#fff" d="M0 0h24v24H0z"/></clipPath></defs></svg>