<svg width="96" height="105" fill="none" xmlns="http://www.w3.org/2000/svg"><path d="M50.669 49.743h-6.89v28.255h6.89V49.743zm0-27.44h29.123a6.87 6.87 0 006.89-6.891H50.669v6.891z" fill="#FF585D"/><path d="M43.78 23.619v23.994a29.639 29.639 0 016.889-3.884V15.412l-6.89 8.207z" fill="#FF808B"/><path d="M0 60.394h9.019l41.65-49.681V0L0 60.394z" fill="#FF585D"/><path d="M60.815 34.958c-3.508 0-6.952.501-10.146 1.504v7.267a28.616 28.616 0 0110.146-1.88c15.532 0 28.121 12.593 28.121 28.13 0 15.537-12.589 28.13-28.121 28.13a27.935 27.935 0 01-17.036-5.764v8.207A34.68 34.68 0 0060.815 105c19.353 0 35.01-15.662 35.01-35.021s-15.72-35.02-35.01-35.02z" fill="#FF808B"/><path d="M61.378 60.394H0v6.891h61.378v-6.891zm28.873-9.398a31.595 31.595 0 013.82 15.099c0 17.667-14.342 32.014-32.004 32.014-1.064 0-2.066-.063-3.131-.126-4.76-.313-9.144-1.817-12.965-4.197-.751-.439-1.503-.877-2.192-1.378v8.144A34.68 34.68 0 0060.815 105c19.353 0 35.01-15.662 35.01-35.02a34.977 34.977 0 00-5.574-18.984z" fill="#FF585D"/></svg>