<svg width="40" height="40" fill="none" xmlns="http://www.w3.org/2000/svg"><path d="M19.996 39.992c11.044 0 19.996-8.952 19.996-19.996C39.992 8.953 31.04 0 19.996 0 8.953 0 0 8.953 0 19.996 0 31.04 8.953 39.992 19.996 39.992z" fill="#fff"/><path d="M20.059 8.18c-4.845 0-9.449-.43-11.21 4.081-.724 1.862-.622 4.284-.622 7.75 0 3.039-.102 5.898.623 7.752 1.752 4.518 6.395 4.081 11.201 4.081 4.643 0 9.426.483 11.21-4.082.724-1.885.623-4.268.623-7.75 0-4.62.257-7.603-1.987-9.846-2.274-2.275-5.343-1.987-9.838-1.987zm-1.067 2.134c10.11-.016 11.396-1.138 10.687 14.473-.249 5.523-4.455 4.915-9.628 4.915-9.425 0-9.698-.273-9.698-9.698.008-9.542.756-9.69 8.639-9.69zm7.377 1.963a1.418 1.418 0 000 2.835c.779 0 1.417-.639 1.417-1.418 0-.786-.63-1.417-1.417-1.417zm-6.31 1.659a6.074 6.074 0 00-6.076 6.076 6.074 6.074 0 006.076 6.076 6.074 6.074 0 006.076-6.076 6.079 6.079 0 00-6.076-6.076zm0 2.126c5.211 0 5.22 7.884 0 7.884-5.211.007-5.227-7.884 0-7.884z" fill="#FF585D"/></svg>