<?xml version="1.0" encoding="utf-8"?><svg xmlns="http://www.w3.org/2000/svg" xmlns:xlink="http://www.w3.org/1999/xlink"><symbol viewBox="0 0 24 38" id="binder" xmlns="http://www.w3.org/2000/svg"><path d="M12 38C5.382 38 0 32.674 0 26.125V9.5a1.59 1.59 0 011.6-1.583c.883 0 1.6.707 1.6 1.583v16.625c0 4.8 3.947 8.708 8.8 8.708 4.853 0 8.8-3.907 8.8-8.708V8.708c0-3.055-2.512-5.541-5.6-5.541-3.088 0-5.6 2.486-5.6 5.541v15.834c0 1.309 1.077 2.375 2.4 2.375s2.4-1.066 2.4-2.375V9.5A1.59 1.59 0 0116 7.917c.883 0 1.6.707 1.6 1.583v15.042c0 3.055-2.512 5.541-5.6 5.541-3.088 0-5.6-2.485-5.6-5.541V8.708C6.4 3.908 10.347 0 15.2 0 20.053 0 24 3.908 24 8.708v17.417C24 32.674 18.618 38 12 38z"/></symbol><symbol viewBox="0 0 20 20" id="clock" xmlns="http://www.w3.org/2000/svg"><path d="M10 0C4.486 0 0 4.486 0 10s4.486 10 10 10 10-4.486 10-10S15.514 0 10 0zm0 18.75c-4.825 0-8.75-3.925-8.75-8.75S5.175 1.25 10 1.25s8.75 3.925 8.75 8.75-3.925 8.75-8.75 8.75z"/><path d="M10.625 3.75h-1.25v6.509l3.933 3.933.884-.884-3.567-3.567V3.75z"/></symbol><symbol viewBox="0 0 15.642 15.642" id="close" xmlns="http://www.w3.org/2000/svg"><path fill-rule="evenodd" d="M8.882 7.821l6.541-6.541A.75.75 0 1014.362.219L7.821 6.76 1.28.22A.75.75 0 10.219 1.281L6.76 7.822l-6.54 6.54a.75.75 0 001.06 1.061l6.541-6.541 6.541 6.541a.75.75 0 101.06-1.061l-6.54-6.541z"/></symbol><symbol viewBox="0 0 20 20" id="email" xmlns="http://www.w3.org/2000/svg"><path d="M18.333 2.5H1.667C.747 2.5 0 3.247 0 4.167v11.666c0 .92.747 1.667 1.667 1.667h16.666c.92 0 1.667-.747 1.667-1.667V4.167c0-.92-.747-1.667-1.667-1.667zm-16.666.833h16.666c.062 0 .116.023.174.035a2274.01 2274.01 0 01-7.902 7.207c-.131.118-.343.258-.605.258-.262 0-.474-.14-.605-.259a2249.856 2249.856 0 01-7.902-7.206c.058-.012.112-.035.174-.035zm-.834 12.5V4.167c0-.082.025-.156.047-.23C1.984 4.946 5.323 8 7.487 9.97c-2.157 1.853-5.496 5.019-6.61 6.08-.02-.07-.044-.14-.044-.217zm17.5.834H1.667c-.067 0-.126-.024-.188-.038 1.15-1.097 4.51-4.281 6.63-6.095l.728.659c.344.31.745.474 1.163.474.418 0 .82-.164 1.162-.474.2-.179.452-.408.729-.659 2.12 1.814 5.48 4.998 6.63 6.095-.062.014-.121.038-.188.038zm.834-.834c0 .077-.025.147-.044.217-1.114-1.062-4.453-4.227-6.61-6.08C14.677 8 18.015 4.947 19.12 3.936c.022.075.047.149.047.23v11.667z"/></symbol><symbol viewBox="0 0 96 105" id="logo" xmlns="http://www.w3.org/2000/svg"><path d="M50.669 49.743h-6.89v28.255h6.89V49.743zm0-27.44h29.123a6.87 6.87 0 006.89-6.891H50.669v6.891z"/><path d="M43.78 23.619v23.994a29.639 29.639 0 016.889-3.884V15.412l-6.89 8.207zM0 60.394h9.019l41.65-49.681V0L0 60.394z"/><path d="M60.815 34.958c-3.508 0-6.952.501-10.146 1.504v7.267a28.616 28.616 0 0110.146-1.88c15.532 0 28.12 12.593 28.12 28.13 0 15.537-12.588 28.13-28.12 28.13a27.935 27.935 0 01-17.036-5.764v8.207A34.68 34.68 0 0060.815 105c19.353 0 35.01-15.662 35.01-35.021s-15.72-35.021-35.01-35.021z"/><path d="M61.378 60.394H0v6.891h61.378v-6.891zm28.873-9.397a31.596 31.596 0 013.82 15.098c0 17.667-14.342 32.014-32.004 32.014-1.064 0-2.066-.063-3.131-.125-4.76-.314-9.144-1.817-12.965-4.198-.751-.439-1.503-.877-2.192-1.378v8.144A34.68 34.68 0 0060.815 105c19.353 0 35.01-15.662 35.01-35.02a34.977 34.977 0 00-5.574-18.983z"/></symbol><symbol viewBox="0 0 22 22" id="marker" xmlns="http://www.w3.org/2000/svg"><path d="M11 0C6.519 0 2.873 3.646 2.873 8.127c0 1.475.662 3.062.69 3.129.213.507.635 1.295.939 1.757l5.572 8.443c.228.346.566.544.926.544.36 0 .698-.198.926-.544l5.573-8.443c.304-.462.725-1.25.939-1.757.028-.067.689-1.653.689-3.13C19.127 3.647 15.48 0 11 0zm6.556 10.885c-.19.454-.583 1.187-.856 1.601l-5.572 8.444c-.11.166-.145.166-.255 0L5.3 12.486a12.016 12.016 0 01-.856-1.602c-.008-.02-.615-1.48-.615-2.757 0-3.954 3.217-7.17 7.17-7.17 3.955 0 7.172 3.216 7.172 7.17 0 1.28-.608 2.743-.615 2.758z"/><path d="M11 3.825a4.307 4.307 0 00-4.303 4.302A4.307 4.307 0 0011 12.43a4.307 4.307 0 004.302-4.303A4.307 4.307 0 0011 3.825zm0 7.649a3.35 3.35 0 01-3.347-3.347A3.35 3.35 0 0111 4.781a3.35 3.35 0 013.346 3.346A3.35 3.35 0 0111 11.474z"/></symbol><symbol viewBox="0 0 36 35" id="message" xmlns="http://www.w3.org/2000/svg"><path d="M30.048 5.204A17.757 17.757 0 0017.032.006C7.322.292-.281 8.274.008 17.892c.041 2.006.455 3.97 1.198 5.813a17.163 17.163 0 002.48 4.297L2.239 31.4c-.578 1.31.042 2.824 1.364 3.397.454.204.992.245 1.487.164l6.694-1.147a17.644 17.644 0 007.438.86c8.636-.86 15.371-7.859 15.826-16.454a17.16 17.16 0 00-5-13.016zM16.247 24.318H11.66c-.702 0-1.322-.573-1.322-1.31 0-.695.579-1.31 1.322-1.31h4.587c.702 0 1.322.574 1.322 1.31a1.3 1.3 0 01-1.322 1.31zm7.148-5.32H11.66c-.702 0-1.322-.574-1.322-1.31a1.3 1.3 0 011.322-1.31h11.735c.703 0 1.323.573 1.323 1.31 0 .736-.62 1.31-1.323 1.31zm0-5.362H11.66c-.702 0-1.322-.573-1.322-1.31 0-.696.579-1.31 1.322-1.31h11.735c.703 0 1.323.573 1.323 1.31 0 .696-.62 1.31-1.323 1.31z"/></symbol><symbol viewBox="0 0 20 20" id="phone" xmlns="http://www.w3.org/2000/svg"><g clip-path="url(#hclip0)"><path d="M15.807 12.39c-.41-.427-.903-.655-1.426-.655-.52 0-1.018.224-1.444.65l-1.334 1.33c-.11-.06-.22-.114-.325-.17a5.143 5.143 0 01-.418-.223c-1.25-.793-2.385-1.828-3.474-3.166-.527-.667-.882-1.228-1.14-1.798.347-.316.667-.646.98-.962.118-.118.236-.24.354-.36.887-.886.887-2.034 0-2.92L6.428 2.964c-.13-.131-.266-.266-.393-.401a20.308 20.308 0 00-.793-.786c-.41-.405-.9-.62-1.414-.62-.515 0-1.013.215-1.435.62l-.009.009L.95 3.234a3.088 3.088 0 00-.916 1.962C-.068 6.43.295 7.577.573 8.33c.684 1.844 1.706 3.554 3.23 5.386a19.864 19.864 0 006.614 5.18c.97.46 2.267 1.004 3.715 1.097.088.004.181.008.266.008.975 0 1.794-.35 2.435-1.047.004-.008.013-.012.017-.02.22-.267.473-.508.739-.765.181-.173.367-.354.548-.544.418-.435.638-.942.638-1.461 0-.523-.224-1.026-.65-1.448l-2.318-2.326zm1.511 4.444c-.004 0-.004.004 0 0-.164.177-.333.338-.514.515a11.1 11.1 0 00-.815.844c-.426.456-.929.671-1.587.671-.064 0-.131 0-.194-.004-1.254-.08-2.42-.57-3.293-.987a18.751 18.751 0 01-6.23-4.88c-1.44-1.735-2.402-3.339-3.04-5.061-.392-1.051-.536-1.87-.472-2.643.042-.494.232-.903.582-1.253l1.44-1.44c.206-.194.426-.3.641-.3.266 0 .481.161.617.296l.012.013c.258.24.503.49.76.755.13.135.266.27.401.41l1.152 1.152c.448.448.448.861 0 1.309-.122.122-.24.244-.363.363-.354.363-.692.7-1.06 1.03-.008.008-.016.012-.02.02-.363.364-.296.718-.22.959l.013.038c.3.726.722 1.41 1.363 2.225l.005.004c1.165 1.435 2.393 2.554 3.748 3.41.173.11.35.199.52.283.151.076.295.148.417.224.017.008.034.021.05.03a.916.916 0 00.419.105c.35 0 .57-.22.641-.291l1.444-1.444c.143-.143.371-.316.637-.316.262 0 .477.164.608.308l.008.008 2.326 2.326c.435.43.435.874.005 1.321zM10.809 4.758a5.357 5.357 0 012.913 1.51 5.381 5.381 0 011.51 2.913.566.566 0 00.562.473c.034 0 .063-.004.097-.008a.57.57 0 00.469-.659 6.51 6.51 0 00-1.828-3.525 6.511 6.511 0 00-3.525-1.827.573.573 0 00-.658.464.564.564 0 00.46.659zm9.169 4.064a10.711 10.711 0 00-3.01-5.804 10.71 10.71 0 00-5.804-3.01.568.568 0 00-.654.465.573.573 0 00.468.659 9.59 9.59 0 015.188 2.688 9.563 9.563 0 012.689 5.188.566.566 0 00.561.473c.034 0 .064-.004.097-.008a.56.56 0 00.465-.65z"/></g><defs><clipPath id="hclip0"><path d="M0 0h20v20H0z"/></clipPath></defs></symbol><symbol viewBox="0 0 35 35" id="question" xmlns="http://www.w3.org/2000/svg"><path d="M17.5 0C7.85 0 0 7.85 0 17.5S7.85 35 17.5 35 35 27.15 35 17.5 27.15 0 17.5 0zm0 27.708a1.459 1.459 0 110-2.917 1.459 1.459 0 010 2.917zm2.308-9.272c-.516.238-.85.759-.85 1.326v.655a1.458 1.458 0 11-2.916 0v-.655c0-1.702 1-3.262 2.544-3.976 1.487-.683 2.56-2.5 2.56-3.39A3.65 3.65 0 0017.5 8.75a3.65 3.65 0 00-3.646 3.646 1.458 1.458 0 11-2.916 0A6.57 6.57 0 0117.5 5.833a6.57 6.57 0 016.563 6.563c0 1.97-1.71 4.866-4.255 6.04z"/></symbol><symbol viewBox="0 0 33 35" id="share" xmlns="http://www.w3.org/2000/svg"><path d="M31.595 5.833a4.74 4.74 0 11-9.48 0 4.74 4.74 0 019.48 0z"/><path d="M26.855 11.667a5.84 5.84 0 01-5.833-5.834A5.84 5.84 0 0126.856 0a5.84 5.84 0 015.833 5.833 5.84 5.84 0 01-5.834 5.834zm0-9.48a3.65 3.65 0 00-3.645 3.646 3.65 3.65 0 003.645 3.646 3.65 3.65 0 003.646-3.646 3.65 3.65 0 00-3.646-3.646zm4.74 26.98a4.74 4.74 0 11-9.479 0 4.74 4.74 0 019.479 0z"/><path d="M26.855 35a5.84 5.84 0 01-5.833-5.833 5.84 5.84 0 015.834-5.834 5.84 5.84 0 015.833 5.834A5.84 5.84 0 0126.855 35zm0-9.48a3.65 3.65 0 00-3.645 3.647 3.65 3.65 0 003.645 3.645 3.65 3.65 0 003.646-3.645 3.65 3.65 0 00-3.646-3.646zM11.178 17.5a4.74 4.74 0 11-9.479 0 4.74 4.74 0 019.48 0z"/><path d="M6.439 23.333A5.84 5.84 0 01.605 17.5a5.84 5.84 0 015.834-5.833 5.84 5.84 0 015.833 5.833 5.84 5.84 0 01-5.833 5.833zm0-9.479A3.65 3.65 0 002.793 17.5a3.65 3.65 0 003.646 3.646 3.65 3.65 0 003.646-3.646 3.65 3.65 0 00-3.646-3.646z"/><path d="M9.882 16.8c-.507 0-1-.264-1.269-.736a1.461 1.461 0 01.546-1.99L22.69 6.36a1.456 1.456 0 011.99.545 1.46 1.46 0 01-.546 1.99l-13.532 7.714c-.227.13-.475.191-.72.191zm13.531 12.031a1.45 1.45 0 01-.72-.19L9.16 20.925a1.46 1.46 0 01-.545-1.99 1.456 1.456 0 011.99-.545l13.531 7.715a1.46 1.46 0 01-.723 2.725z"/></symbol><symbol viewBox="0 0 90 90" id="woman" xmlns="http://www.w3.org/2000/svg"><g clip-path="url(#kclip0)"><path d="M30.037 56.25a5.632 5.632 0 01-5.625-5.625A5.632 5.632 0 0130.037 45a5.632 5.632 0 015.625 5.625 5.632 5.632 0 01-5.625 5.625zm0-7.5a1.88 1.88 0 00-1.875 1.875c0 1.031.84 1.875 1.875 1.875a1.878 1.878 0 001.875-1.875 1.88 1.88 0 00-1.875-1.875zm30 7.5a5.632 5.632 0 01-5.625-5.625A5.632 5.632 0 0160.037 45a5.632 5.632 0 015.625 5.625 5.632 5.632 0 01-5.625 5.625zm0-7.5a1.88 1.88 0 00-1.875 1.875 1.88 1.88 0 001.875 1.875 1.88 1.88 0 001.875-1.875 1.88 1.88 0 00-1.875-1.875z"/><path d="M45.037 90c-8.569 0-16.65-4.796-24.713-14.662-3.51-4.298-5.403-9.807-5.336-15.514.079-6.698.18-16.05.18-20.449 0-1.035.84-1.875 1.875-1.875 19.114 0 26.168-10.001 26.46-10.425.353-.517.953-.84 1.56-.821a1.87 1.87 0 011.549.828c.285.413 7.275 10.306 26.569 10.306 1.035 0 1.875.84 1.875 1.875l.007 20.782c0 5.587-1.897 11.002-5.34 15.236C64.582 81.6 56.43 90 45.037 90zM18.914 41.22c-.022 4.834-.108 12.761-.176 18.649-.06 4.83 1.538 9.48 4.489 13.095 7.406 9.064 14.336 13.286 21.81 13.286 7.455 0 14.374-4.237 21.78-13.335 2.899-3.57 4.496-8.141 4.496-12.874l-.007-18.937c-15.173-.488-23.142-6.829-26.247-10.073-3.105 3.27-11.077 9.69-26.145 10.189z"/><path d="M45.042 71.336a14.96 14.96 0 01-10.609-4.387 1.876 1.876 0 010-2.651 1.876 1.876 0 012.651 0c4.384 4.383 11.52 4.39 15.912 0a1.876 1.876 0 012.651 0c.731.73.731 1.92 0 2.65a14.942 14.942 0 01-10.605 4.388z"/><path d="M73.2 67.95h-.825a1.876 1.876 0 010-3.75h.517a8.81 8.81 0 005.858-8.325V37.5c0-18.038-17.475-26.25-33.712-26.25-16.275 0-33.788 8.205-33.788 26.212v18.372a8.8 8.8 0 005.959 8.362h.454a1.876 1.876 0 010 3.75h-.75c-.188 0-.38-.03-.555-.082A12.53 12.53 0 017.5 55.837V37.462C7.5 16.875 26.955 7.5 45.038 7.5c18.04 0 37.462 9.39 37.462 30v18.225c0 5.64-3.51 10.455-8.726 12.131a1.787 1.787 0 01-.574.094z"/><path d="M67.316 16.95a1.875 1.875 0 01-1.849-2.205 9.201 9.201 0 00.158-1.62c0-5.171-4.204-9.375-9.375-9.375h-22.5a9.33 9.33 0 00-6.626 2.749 9.308 9.308 0 00-2.749 6.626c0 .623.045 1.08.135 1.485a1.863 1.863 0 01-1.395 2.25c-1.012.27-2.017-.39-2.254-1.395-.21-.889-.236-1.717-.236-2.34a13.03 13.03 0 013.848-9.277A13.032 13.032 0 0133.75 0h22.5c7.237 0 13.125 5.888 13.125 13.125 0 .787-.082 1.53-.218 2.276a1.874 1.874 0 01-1.84 1.549z"/></g><defs><clipPath id="kclip0"><path d="M0 0h90v90H0z"/></clipPath></defs></symbol></svg>