<svg width="40" height="40" fill="none" xmlns="http://www.w3.org/2000/svg"><g clip-path="url(#clip0)"><path d="M20 40c11.046 0 20-8.955 20-20C40 8.954 31.047 0 20 0 8.956 0 .002 8.954.002 20c0 11.045 8.954 20 20 20z" fill="#fff"/><path d="M32.252 14.373a9.537 9.537 0 01-2.746.752 4.793 4.793 0 002.102-2.644 9.57 9.57 0 01-3.036 1.16A4.781 4.781 0 0020.426 18a13.57 13.57 0 01-9.854-4.995 4.78 4.78 0 001.48 6.383 4.747 4.747 0 01-2.166-.599v.06a4.783 4.783 0 003.835 4.688 4.764 4.764 0 01-2.159.082 4.786 4.786 0 004.466 3.32 9.592 9.592 0 01-5.938 2.047 9.64 9.64 0 01-1.14-.067 13.522 13.522 0 007.328 2.148c8.793 0 13.602-7.285 13.602-13.603 0-.207-.005-.413-.014-.618a9.694 9.694 0 002.386-2.474z" fill="#FF585D"/></g><defs><clipPath id="clip0"><path fill="#fff" d="M0 0h40v40H0z"/></clipPath></defs></svg>