<svg width="24" height="38" viewBox="0 0 24 38" xmlns="http://www.w3.org/2000/svg">
<path d="M12 38C5.38242 38 0 32.6736 0 26.125V9.5C0 8.62445 0.716895 7.91676 1.5999 7.91676C2.4832 7.91676 3.2001 8.62445 3.2001 9.5V26.125C3.2001 30.9257 7.14727 34.8332 12 34.8332C16.8527 34.8332 20.7999 30.9257 20.7999 26.125V8.70824C20.7999 5.65251 18.288 3.16676 15.2001 3.16676C12.1119 3.16676 9.6 5.65251 9.6 8.70824V24.5418C9.6 25.851 10.6767 26.9168 12 26.9168C13.3233 26.9168 14.4 25.851 14.4 24.5418V9.5C14.4 8.62445 15.1169 7.91676 15.9999 7.91676C16.8832 7.91676 17.6001 8.62445 17.6001 9.5V24.5418C17.6001 27.5975 15.0879 30.0832 12 30.0832C8.91211 30.0832 6.3999 27.5975 6.3999 24.5418V8.70824C6.3999 3.90779 10.3471 0 15.2001 0C20.0528 0 24 3.90779 24 8.70824V26.125C24 32.6736 18.6176 38 12 38Z" fill="white"/>
</svg>
