<svg width="96" height="105" viewBox="0 0 96 105" fill="" xmlns="http://www.w3.org/2000/svg">
    <path d="M50.6685 49.7432H43.7791V77.9979H50.6685V49.7432Z" fill="white"/>
    <path d="M50.6687 22.303H79.7921C83.6126 22.303 86.6815 19.2332 86.6815 15.4116H50.6687V22.303Z" fill="white"/>
    <path d="M43.7791 23.6187V47.6133C45.8459 46.0471 48.1632 44.7314 50.6685 43.7291V15.4116L43.7791 23.6187Z"
          fill="white"/>
    <path d="M0 60.3938H9.01885L50.6684 10.713V0L0 60.3938Z" fill="white"/>
    <path d="M60.8147 34.958C57.3073 34.958 53.8626 35.4592 50.6685 36.4616V43.7289C53.8 42.5386 57.2447 41.8494 60.8147 41.8494C76.3471 41.8494 88.9359 54.4419 88.9359 69.9789C88.9359 85.5159 76.3471 98.1084 60.8147 98.1084C54.4263 98.1084 48.539 95.9783 43.7791 92.3447V100.552C48.7895 103.371 54.6142 105 60.8147 105C80.1676 105 95.8253 89.3375 95.8253 69.9789C95.8253 50.6203 80.105 34.958 60.8147 34.958Z"
          fill="white"/>
    <path d="M61.3783 60.3936H0V67.285H61.3783V60.3936Z" fill="white"/>
    <path d="M90.2512 50.9966C92.6938 55.5073 94.0717 60.6446 94.0717 66.095C94.0717 83.7621 79.7292 98.1088 62.0673 98.1088C61.0026 98.1088 60.0005 98.0461 58.9357 97.9835C54.1758 97.6702 49.7916 96.1666 45.9711 93.786C45.2196 93.3474 44.468 92.9089 43.7791 92.4077V100.552C48.7895 103.371 54.6142 105 60.8147 105C80.1676 105 95.8253 89.3379 95.8253 69.9793C95.8253 62.9626 93.7585 56.4471 90.2512 50.9966Z"
          fill="white"/>
</svg>
