<svg width="22" height="22" viewBox="0 0 22 22" fill="" xmlns="http://www.w3.org/2000/svg">
<path d="M10.9999 0C6.51868 0 2.87305 3.64563 2.87305 8.1269C2.87305 9.60217 3.53467 11.1888 3.5624 11.2558C3.77609 11.763 4.19773 12.5508 4.50177 13.0126L10.074 21.4555C10.302 21.8016 10.6395 22 10.9999 22C11.3604 22 11.6979 21.8016 11.9259 21.456L17.4986 13.0126C17.8031 12.5508 18.2243 11.763 18.438 11.2558C18.4657 11.1893 19.1269 9.60265 19.1269 8.1269C19.1269 3.64563 15.4812 0 10.9999 0ZM17.5564 10.8848C17.3657 11.3394 16.9732 12.0723 16.7003 12.4863L11.1276 20.9296C11.0176 21.0965 10.9827 21.0965 10.8728 20.9296L5.30012 12.4863C5.02715 12.0723 4.63467 11.3389 4.44393 10.8843C4.4358 10.8647 3.82915 9.40426 3.82915 8.1269C3.82915 4.17292 7.04597 0.956106 10.9999 0.956106C14.9539 0.956106 18.1707 4.17292 18.1707 8.1269C18.1707 9.40617 17.5627 10.8704 17.5564 10.8848Z" fill="#323232"/>
<path d="M10.9997 3.82492C8.62717 3.82492 6.69727 5.7553 6.69727 8.1274C6.69727 10.4995 8.62717 12.4299 10.9997 12.4299C13.3723 12.4299 15.3022 10.4995 15.3022 8.1274C15.3022 5.7553 13.3723 3.82492 10.9997 3.82492ZM10.9997 11.4738C9.15494 11.4738 7.65337 9.97269 7.65337 8.1274C7.65337 6.28211 9.15494 4.78103 10.9997 4.78103C12.8445 4.78103 14.3461 6.28211 14.3461 8.1274C14.3461 9.97269 12.8445 11.4738 10.9997 11.4738Z" fill="#323232"/>
</svg>
