<svg width="36" height="35" viewBox="0 0 36 35" xmlns="http://www.w3.org/2000/svg">
<path d="M30.048 5.20385C26.6184 1.76567 21.9079 -0.117141 17.032 0.0056514C7.32172 0.292166 -0.281257 8.27365 0.00798638 17.8924C0.0493069 19.898 0.462512 21.8626 1.20628 23.7045C1.82609 25.2599 2.6525 26.6925 3.68551 28.0023L2.2393 31.3995C1.66081 32.7093 2.28062 34.2237 3.60287 34.7967C4.0574 35.0014 4.59457 35.0423 5.09041 34.9605L11.7843 33.8144C14.1809 34.633 16.7015 34.9195 19.222 34.674C27.858 33.8144 34.5933 26.8153 35.0478 18.2198C35.2957 13.3491 33.4776 8.64203 30.048 5.20385ZM16.247 24.3185H11.6604C10.9579 24.3185 10.3381 23.7455 10.3381 23.0087C10.3381 22.3129 10.9166 21.6989 11.6604 21.6989H16.247C16.9494 21.6989 17.5692 22.272 17.5692 23.0087C17.5692 23.7455 16.9907 24.3185 16.247 24.3185ZM23.3954 18.9975H11.6604C10.9579 18.9975 10.3381 18.4245 10.3381 17.6877C10.3381 16.951 10.9166 16.3779 11.6604 16.3779H23.3954C24.0979 16.3779 24.7177 16.951 24.7177 17.6877C24.7177 18.4245 24.0979 18.9975 23.3954 18.9975ZM23.3954 13.6356H11.6604C10.9579 13.6356 10.3381 13.0625 10.3381 12.3258C10.3381 11.63 10.9166 11.016 11.6604 11.016H23.3954C24.0979 11.016 24.7177 11.589 24.7177 12.3258C24.7177 13.0216 24.0979 13.6356 23.3954 13.6356Z" fill="white"/>
</svg>
