<svg width="20" height="20" viewBox="0 0 20 20" fill="" xmlns="http://www.w3.org/2000/svg">
<g clip-path="url(#clip0)">
<path d="M15.8074 12.3893C15.3979 11.963 14.9041 11.735 14.3806 11.735C13.8614 11.735 13.3633 11.9587 12.937 12.3851L11.6031 13.7147C11.4934 13.6556 11.3836 13.6008 11.2781 13.5459C11.1261 13.4699 10.9826 13.3982 10.8602 13.3222C9.61075 12.5286 8.47527 11.4944 7.38621 10.1563C6.85857 9.48938 6.504 8.92797 6.24651 8.35812C6.59264 8.04153 6.91345 7.71229 7.22581 7.3957C7.344 7.27751 7.46219 7.1551 7.58039 7.0369C8.46683 6.15046 8.46683 5.00232 7.58039 4.11588L6.42802 2.96351C6.29716 2.83265 6.16208 2.69758 6.03545 2.5625C5.78218 2.30079 5.51625 2.03064 5.24188 1.77737C4.83243 1.37214 4.34277 1.15686 3.8278 1.15686C3.31282 1.15686 2.81472 1.37214 2.39261 1.77737C2.38839 1.78159 2.38839 1.78159 2.38417 1.78581L0.948981 3.23366C0.408675 3.77397 0.100533 4.43246 0.0329944 5.19649C-0.0683129 6.42906 0.294705 7.57721 0.5733 8.32857C1.25712 10.1732 2.27864 11.8828 3.80247 13.7147C5.65133 15.9224 7.87587 17.6657 10.417 18.8941C11.3879 19.3542 12.6837 19.8987 14.1316 19.9916C14.2202 19.9958 14.3131 20 14.3975 20C15.3726 20 16.1915 19.6497 16.8331 18.9532C16.8373 18.9447 16.8458 18.9405 16.85 18.9321C17.0695 18.6661 17.3228 18.4255 17.5887 18.168C17.7702 17.995 17.9559 17.8135 18.1374 17.6235C18.5553 17.1887 18.7748 16.6822 18.7748 16.163C18.7748 15.6396 18.5511 15.1373 18.1248 14.7152L15.8074 12.3893ZM17.3185 16.8342C17.3143 16.8342 17.3143 16.8384 17.3185 16.8342C17.1539 17.0114 16.9851 17.1719 16.8036 17.3491C16.5292 17.6109 16.2506 17.8852 15.9889 18.1934C15.5626 18.6493 15.0602 18.8645 14.4017 18.8645C14.3384 18.8645 14.2709 18.8645 14.2076 18.8603C12.9539 18.7801 11.7889 18.2905 10.9151 17.8726C8.52592 16.716 6.42802 15.0739 4.68469 12.9929C3.24528 11.258 2.28286 9.65401 1.64547 7.93179C1.2529 6.88072 1.10938 6.06182 1.1727 5.28935C1.21491 4.79548 1.40486 4.38603 1.75522 4.03568L3.19463 2.59627C3.40146 2.4021 3.62096 2.29657 3.83624 2.29657C4.10217 2.29657 4.31745 2.45697 4.45252 2.59205C4.45675 2.59627 4.46097 2.60049 4.46519 2.60471C4.72268 2.84532 4.9675 3.09436 5.22499 3.36029C5.35585 3.49537 5.49092 3.63045 5.626 3.76974L6.77837 4.92211C7.22581 5.36955 7.22581 5.78323 6.77837 6.23067C6.65596 6.35308 6.53777 6.47549 6.41535 6.59368C6.06078 6.9567 5.72309 7.29439 5.35585 7.62364C5.34741 7.63208 5.33896 7.63631 5.33474 7.64475C4.97172 8.00777 5.03926 8.36234 5.11524 8.60295C5.11946 8.61561 5.12368 8.62827 5.12791 8.64094C5.42761 9.36697 5.84972 10.0508 6.49133 10.8655L6.49555 10.8697C7.66059 12.3049 8.88894 13.4235 10.2439 14.2804C10.417 14.3901 10.5943 14.4788 10.7631 14.5632C10.9151 14.6392 11.0586 14.7109 11.181 14.7869C11.1979 14.7954 11.2148 14.808 11.2317 14.8165C11.3752 14.8882 11.5103 14.922 11.6496 14.922C11.9999 14.922 12.2194 14.7025 12.2912 14.6307L13.7348 13.1871C13.8783 13.0436 14.1063 12.8705 14.3722 12.8705C14.6339 12.8705 14.8492 13.0351 14.98 13.1787C14.9843 13.1829 14.9843 13.1829 14.9885 13.1871L17.3143 15.5129C17.7491 15.9435 17.7491 16.3867 17.3185 16.8342Z" fill="#323232"/>
<path d="M10.8089 4.7575C11.9148 4.94323 12.9195 5.46665 13.7215 6.26866C14.5235 7.07068 15.0427 8.07531 15.2327 9.18125C15.2791 9.45984 15.5197 9.65402 15.7941 9.65402C15.8278 9.65402 15.8574 9.64979 15.8912 9.64557C16.2035 9.59492 16.4104 9.29944 16.3597 8.98708C16.1318 7.64898 15.4986 6.42907 14.532 5.46243C13.5653 4.49579 12.3454 3.86262 11.0073 3.63467C10.6949 3.58402 10.4037 3.79086 10.3488 4.099C10.2939 4.40714 10.4965 4.70684 10.8089 4.7575Z" fill="#323232"/>
<path d="M19.9776 8.82245C19.6019 6.61902 18.5635 4.61398 16.9679 3.01839C15.3723 1.4228 13.3673 0.384399 11.1639 0.00871824C10.8557 -0.0461565 10.5645 0.1649 10.5096 0.473043C10.4589 0.785407 10.6658 1.07667 10.9781 1.13154C12.9452 1.46501 14.7392 2.39788 16.1659 3.8204C17.5926 5.24715 18.5213 7.04113 18.8548 9.00818C18.9012 9.28678 19.1418 9.48095 19.4162 9.48095C19.4499 9.48095 19.4795 9.47673 19.5133 9.47251C19.8214 9.42607 20.0325 9.1306 19.9776 8.82245Z" fill="#323232"/>
</g>
<defs>
<clipPath id="clip0">
<rect width="20" height="20" fill="white"/>
</clipPath>
</defs>
</svg>
