<svg width="33" height="35" viewBox="0 0 33 35" xmlns="http://www.w3.org/2000/svg">
<path d="M31.595 5.83325C31.595 8.45094 29.4732 10.573 26.8555 10.573C24.2378 10.573 22.116 8.45094 22.116 5.83325C22.116 3.21583 24.2378 1.09375 26.8555 1.09375C29.4732 1.09375 31.595 3.21583 31.595 5.83325Z" fill="white"/>
<path d="M26.8555 11.6668C23.6383 11.6668 21.0222 9.05042 21.0222 5.83325C21.0222 2.61635 23.6383 0 26.8555 0C30.0726 0 32.6887 2.61635 32.6887 5.83325C32.6887 9.05042 30.0726 11.6668 26.8555 11.6668ZM26.8555 2.1875C24.8445 2.1875 23.2097 3.82386 23.2097 5.83325C23.2097 7.84292 24.8445 9.47927 26.8555 9.47927C28.8665 9.47927 30.5012 7.84292 30.5012 5.83325C30.5012 3.82386 28.8665 2.1875 26.8555 2.1875Z" fill="white"/>
<path d="M31.595 29.1668C31.595 31.7842 29.4732 33.9063 26.8555 33.9063C24.2378 33.9063 22.116 31.7842 22.116 29.1668C22.116 26.5491 24.2378 24.427 26.8555 24.427C29.4732 24.427 31.595 26.5491 31.595 29.1668Z" fill="white"/>
<path d="M26.8555 35C23.6383 35 21.0222 32.3837 21.0222 29.1668C21.0222 25.9496 23.6383 23.3333 26.8555 23.3333C30.0726 23.3333 32.6887 25.9496 32.6887 29.1668C32.6887 32.3837 30.0726 35 26.8555 35ZM26.8555 25.5208C24.8445 25.5208 23.2097 27.1571 23.2097 29.1668C23.2097 31.1762 24.8445 32.8125 26.8555 32.8125C28.8665 32.8125 30.5012 31.1762 30.5012 29.1668C30.5012 27.1571 28.8665 25.5208 26.8555 25.5208Z" fill="white"/>
<path d="M11.1785 17.5001C11.1785 20.1178 9.05641 22.2396 6.43872 22.2396C3.8213 22.2396 1.69922 20.1178 1.69922 17.5001C1.69922 14.8824 3.8213 12.7606 6.43872 12.7606C9.05641 12.7606 11.1785 14.8824 11.1785 17.5001Z" fill="white"/>
<path d="M6.43872 23.3334C3.22182 23.3334 0.605469 20.7173 0.605469 17.5001C0.605469 14.283 3.22182 11.6669 6.43872 11.6669C9.65589 11.6669 12.2722 14.283 12.2722 17.5001C12.2722 20.7173 9.65589 23.3334 6.43872 23.3334ZM6.43872 13.8544C4.42773 13.8544 2.79297 15.4905 2.79297 17.5001C2.79297 19.5098 4.42773 21.1459 6.43872 21.1459C8.44999 21.1459 10.0847 19.5098 10.0847 17.5001C10.0847 15.4905 8.44999 13.8544 6.43872 13.8544Z" fill="white"/>
<path d="M9.88215 16.8002C9.37453 16.8002 8.8816 16.5361 8.61323 16.0638C8.21509 15.3652 8.46022 14.4741 9.15877 14.0744L22.6905 6.35993C23.389 5.95885 24.2801 6.20398 24.6798 6.9052C25.078 7.60375 24.8329 8.49482 24.1343 8.89457L10.6023 16.609C10.3748 16.7388 10.127 16.8002 9.88215 16.8002Z" fill="white"/>
<path d="M23.4127 28.8314C23.1676 28.8314 22.9198 28.77 22.6923 28.6403L9.16028 20.9258C8.46173 20.5276 8.21687 19.6366 8.61501 18.9364C9.01154 18.2365 9.90396 17.9901 10.6041 18.3911L24.1361 26.1056C24.8346 26.5038 25.0795 27.3948 24.6814 28.095C24.4117 28.5674 23.9187 28.8314 23.4127 28.8314Z" fill="white"/>
</svg>
