<svg width="90" height="90" viewBox="0 0 90 90" xmlns="http://www.w3.org/2000/svg">
<g clip-path="url(#clip0)">
<path d="M30.0371 56.25C26.9359 56.25 24.4121 53.7262 24.4121 50.625C24.4121 47.5237 26.9359 45 30.0371 45C33.1384 45 35.6621 47.5237 35.6621 50.625C35.6621 53.7262 33.1384 56.25 30.0371 56.25ZM30.0371 48.75C29.0059 48.75 28.1621 49.5938 28.1621 50.625C28.1621 51.6562 29.0021 52.5 30.0371 52.5C31.0721 52.5 31.9121 51.6562 31.9121 50.625C31.9121 49.5938 31.0684 48.75 30.0371 48.75Z" fill="#FF585D"/>
<path d="M60.0371 56.25C56.9359 56.25 54.4121 53.7262 54.4121 50.625C54.4121 47.5237 56.9359 45 60.0371 45C63.1384 45 65.6621 47.5237 65.6621 50.625C65.6621 53.7262 63.1384 56.25 60.0371 56.25ZM60.0371 48.75C59.0059 48.75 58.1621 49.5938 58.1621 50.625C58.1621 51.6562 59.0059 52.5 60.0371 52.5C61.0684 52.5 61.9121 51.6562 61.9121 50.625C61.9121 49.5938 61.0684 48.75 60.0371 48.75Z" fill="#FF585D"/>
<path d="M45.0368 90C36.4681 90 28.3868 85.2038 20.3243 75.3375C16.8143 71.04 14.9206 65.5313 14.9881 59.8238C15.0668 53.1263 15.1681 43.7738 15.1681 39.375C15.1681 38.34 16.0081 37.5 17.0431 37.5C36.1568 37.5 43.2106 27.4988 43.5031 27.075C43.8556 26.5575 44.4556 26.235 45.0631 26.2538C45.6856 26.2575 46.2668 26.565 46.6118 27.0825C46.8968 27.495 53.8868 37.3875 73.1806 37.3875C74.2156 37.3875 75.0556 38.2275 75.0556 39.2625L75.0631 60.045C75.0631 65.6325 73.1656 71.0475 69.7231 75.2813C64.5818 81.6 56.4293 90 45.0368 90ZM18.9143 41.22C18.8918 46.0538 18.8056 53.9813 18.7381 59.8688C18.6781 64.6988 20.2756 69.3488 23.2268 72.9638C30.6331 82.0275 37.5631 86.25 45.0368 86.25C52.4918 86.25 59.4106 82.0125 66.8168 72.915C69.7156 69.345 71.3131 64.7738 71.3131 60.0413L71.3056 41.1038C56.1331 40.6163 48.1643 34.275 45.0593 31.0313C41.9543 34.3013 33.9818 40.7213 18.9143 41.22Z" fill="#FF585D"/>
<path d="M45.042 71.3363C41.202 71.3363 37.3582 69.8738 34.4332 66.9488C33.702 66.2175 33.702 65.0288 34.4332 64.2975C35.1645 63.5663 36.3532 63.5663 37.0845 64.2975C41.4682 68.6813 48.6045 68.6888 52.9957 64.2975C53.727 63.5663 54.9157 63.5663 55.647 64.2975C56.3782 65.0288 56.3782 66.2175 55.647 66.9488C52.722 69.8775 48.8782 71.3363 45.042 71.3363Z" fill="#FF585D"/>
<path d="M73.2 67.95H72.375C71.34 67.95 70.5 67.11 70.5 66.075C70.5 65.04 71.34 64.2 72.375 64.2H72.8925C76.4062 62.9475 78.75 59.6363 78.75 55.875V37.5C78.75 19.4625 61.275 11.25 45.0375 11.25C28.7625 11.25 11.25 19.455 11.25 37.4625V55.8338C11.25 59.6438 13.635 62.9663 17.2088 64.1963H17.6625C18.6975 64.1963 19.5375 65.0363 19.5375 66.0713C19.5375 67.1063 18.6975 67.9463 17.6625 67.9463H16.9125C16.725 67.9463 16.5337 67.9163 16.3575 67.8638C11.0587 66.2213 7.5 61.3875 7.5 55.8375V37.4625C7.5 16.875 26.955 7.50002 45.0375 7.50002C63.0788 7.50002 82.5 16.89 82.5 37.5V55.725C82.5 61.365 78.99 66.18 73.7738 67.8563C73.5863 67.92 73.3913 67.95 73.2 67.95Z" fill="#FF585D"/>
<path d="M67.3162 16.95C67.2075 16.95 67.095 16.9387 66.9825 16.92C65.9662 16.7362 65.2837 15.765 65.4675 14.745C65.5612 14.2162 65.625 13.6837 65.625 13.125C65.625 7.95375 61.4212 3.75 56.25 3.75H33.75C31.2525 3.75 28.8975 4.72875 27.1237 6.49875C25.35 8.26875 24.375 10.6275 24.375 13.125C24.375 13.7475 24.42 14.205 24.51 14.61C24.75 15.615 24.1275 16.6275 23.115 16.86C22.1025 17.13 21.0975 16.47 20.8613 15.465C20.6513 14.5762 20.625 13.7475 20.625 13.125C20.625 9.6225 21.99 6.33 24.4725 3.8475C26.955 1.365 30.2475 0 33.75 0H56.25C63.4875 0 69.375 5.8875 69.375 13.125C69.375 13.9125 69.2925 14.655 69.1575 15.4012C68.9962 16.3125 68.205 16.95 67.3162 16.95Z" fill="#FF585D"/>
</g>
<defs>
<clipPath id="clip0">
<rect width="90" height="90" fill="white"/>
</clipPath>
</defs>
</svg>
