<svg width="24" height="24" viewBox="0 0 24 24" fill="none" xmlns="http://www.w3.org/2000/svg">
<g clip-path="url(#clip0)">
<path d="M11.9998 0.00579834C6.96655 0.00579834 2.86133 4.11102 2.86133 9.14427C2.86133 11.1406 3.49395 13.0386 4.68908 14.6273L11.4374 23.7189C11.5357 23.8595 11.8029 24.0001 11.9998 24.0001C12.2107 24.0001 12.4639 23.8454 12.5622 23.7189C12.5902 23.6766 19.3808 14.5288 19.4371 14.4445C19.4512 14.4445 19.4512 14.4445 19.4512 14.4305C20.5478 12.884 21.1382 11.0563 21.1382 9.14427C21.1383 4.11106 17.033 0.00579834 11.9998 0.00579834ZM11.9998 14.065C9.28648 14.065 7.07909 11.8577 7.07909 9.14427C7.07909 6.43086 9.28648 4.22356 11.9998 4.22356C14.7131 4.22356 16.9205 6.43086 16.9205 9.14427C16.9205 11.8577 14.7131 14.065 11.9998 14.065Z" fill="#FF808B"/>
<path d="M12 0V4.21777C14.7133 4.21777 16.9207 6.42506 16.9207 9.13847C16.9207 11.8519 14.7133 14.0592 12 14.0592V23.9943C12.2109 23.9943 12.4641 23.8396 12.5624 23.7131C12.5904 23.6708 19.381 14.523 19.4373 14.4387C19.4514 14.4387 19.4514 14.4387 19.4514 14.4247C20.548 12.8782 21.1384 11.0505 21.1384 9.13847C21.1385 4.10522 17.0333 0 12 0Z" fill="#FF585D"/>
</g>
<defs>
<clipPath id="clip0">
<rect width="24" height="24" fill="white"/>
</clipPath>
</defs>
</svg>
