<svg width="12" height="25" viewBox="0 0 12 25" fill="none" xmlns="http://www.w3.org/2000/svg">
<path d="M6.68502 24.7136C6.68531 24.7133 6.68564 24.713 6.68593 24.7127L11.7182 19.61C12.0952 19.2277 12.0938 18.6094 11.7149 18.2288C11.3361 17.8484 10.7234 17.8498 10.3463 18.2321L6.96774 21.6581L6.96774 0.976562C6.96774 0.437207 6.53448 -2.38905e-07 6 -2.62268e-07C5.46552 -2.85631e-07 5.03226 0.437207 5.03226 0.976562L5.03226 21.658L1.65367 18.2322C1.27664 17.8499 0.663916 17.8484 0.285093 18.2289C-0.0938271 18.6094 -0.0951327 19.2278 0.281802 19.61L5.31406 24.7127C5.31435 24.713 5.31469 24.7133 5.31498 24.7136C5.69327 25.0961 6.30798 25.0949 6.68502 24.7136Z" fill="white"/>
</svg>
