<svg width="96" height="105" viewBox="0 0 96 105" fill="none" xmlns="http://www.w3.org/2000/svg">
<path d="M50.6686 49.7434H43.7792V77.9982H50.6686V49.7434Z" fill="#FF585D"/>
<path d="M50.6687 22.303H79.7921C83.6126 22.303 86.6815 19.2332 86.6815 15.4116H50.6687V22.303Z" fill="#FF585D"/>
<path d="M43.7792 23.6187V47.6133C45.846 46.0471 48.1633 44.7314 50.6686 43.7291V15.4116L43.7792 23.6187Z" fill="#FF808B"/>
<path d="M0 60.3938H9.01885L50.6684 10.713V0L0 60.3938Z" fill="#FF585D"/>
<path d="M60.8148 34.9581C57.3074 34.9581 53.8628 35.4593 50.6686 36.4617V43.729C53.8001 42.5387 57.2448 41.8495 60.8148 41.8495C76.3472 41.8495 88.9361 54.442 88.9361 69.979C88.9361 85.516 76.3472 98.1085 60.8148 98.1085C54.4264 98.1085 48.5391 95.9784 43.7792 92.3448V100.552C48.7896 103.371 54.6143 105 60.8148 105C80.1677 105 95.8255 89.3376 95.8255 69.979C95.8255 50.6204 80.1051 34.9581 60.8148 34.9581Z" fill="#FF808B"/>
<path d="M61.3783 60.3938H0V67.2852H61.3783V60.3938Z" fill="#FF585D"/>
<path d="M90.2513 50.9965C92.6939 55.5072 94.0718 60.6444 94.0718 66.0949C94.0718 83.762 79.7293 98.1086 62.0674 98.1086C61.0027 98.1086 60.0006 98.046 58.9359 97.9833C54.1759 97.6701 49.7917 96.1665 45.9713 93.7858C45.2197 93.3473 44.4681 92.9088 43.7792 92.4076V100.552C48.7896 103.371 54.6143 105 60.8148 105C80.1677 105 95.8255 89.3378 95.8255 69.9792C95.8255 62.9625 93.7586 56.4469 90.2513 50.9965Z" fill="#FF585D"/>
</svg>
