<svg width="40" height="40" viewBox="0 0 40 40" fill="none" xmlns="http://www.w3.org/2000/svg">
<path d="M19.9961 39.9922C31.0397 39.9922 39.9922 31.0397 39.9922 19.9961C39.9922 8.95256 31.0397 0 19.9961 0C8.95256 0 0 8.95256 0 19.9961C0 31.0397 8.95256 39.9922 19.9961 39.9922Z" fill="white"/>
<path d="M20.059 8.17926C15.2139 8.17926 10.6102 7.75083 8.84969 12.2611C8.12525 14.1228 8.22651 16.5454 8.22651 20.0118C8.22651 23.0498 8.12525 25.9086 8.84969 27.7625C10.6024 32.2805 15.245 31.8443 20.0512 31.8443C24.6939 31.8443 29.4768 32.3273 31.2606 27.7625C31.985 25.8774 31.8838 23.4938 31.8838 20.0118C31.8838 15.3925 32.1408 12.4091 29.8974 10.1656C27.6228 7.89104 24.5537 8.17926 20.059 8.17926ZM18.9919 10.3136C29.1029 10.2981 30.3882 9.17634 29.6793 24.7869C29.43 30.3097 25.2236 29.7021 20.0512 29.7021C10.6257 29.7021 10.3531 29.4295 10.3531 20.004C10.3609 10.4616 11.1087 10.3136 18.9919 10.3136ZM26.3687 12.2766C25.5819 12.2766 24.951 12.9154 24.951 13.6944C24.951 14.4811 25.5897 15.1121 26.3687 15.1121C27.1476 15.1121 27.7864 14.4733 27.7864 13.6944C27.7864 12.9076 27.1554 12.2766 26.3687 12.2766ZM20.059 13.9358C16.7017 13.9358 13.9831 16.6544 13.9831 20.0118C13.9831 23.3691 16.7017 26.0877 20.059 26.0877C23.4164 26.0877 26.135 23.3691 26.135 20.0118C26.135 16.6544 23.4086 13.9358 20.059 13.9358ZM20.059 16.0624C25.2703 16.0624 25.2781 23.9456 20.059 23.9456C14.8477 23.9534 14.8322 16.0624 20.059 16.0624Z" fill="#FF585D"/>
</svg>
