<svg width="40" height="40" viewBox="0 0 40 40" fill="none" xmlns="http://www.w3.org/2000/svg">
    <g clip-path="url(#clip0)">
        <path d="M20.0008 39.9996C31.0464 39.9996 40.0006 31.0454 40.0006 19.9998C40.0006 8.95423 31.0464 0 20.0008 0C8.9552 0 0.000976562 8.95423 0.000976562 19.9998C0.000976562 31.0454 8.9552 39.9996 20.0008 39.9996Z"
              fill="white"/>
        <path d="M32.2516 14.3731C31.3945 14.7532 30.4726 15.0102 29.5057 15.125C30.4929 14.5336 31.2505 13.5977 31.6081 12.4807C30.6844 13.0287 29.6608 13.4262 28.5724 13.6405C27.7003 12.7118 26.4579 12.1313 25.0821 12.1313C22.4424 12.1313 20.3015 14.2722 20.3015 16.9119C20.3015 17.2866 20.344 17.6513 20.426 18.0014C16.453 17.8021 12.9302 15.899 10.5722 13.0059C10.1608 13.7118 9.9248 14.5336 9.9248 15.4095C9.9248 17.0677 10.7694 18.5315 12.0514 19.3886C11.2681 19.364 10.5305 19.149 9.88629 18.79C9.88594 18.8103 9.88594 18.8306 9.88594 18.8506C9.88594 21.1669 11.5345 23.0988 13.721 23.5377C13.3203 23.6475 12.8971 23.7056 12.4618 23.7056C12.153 23.7056 11.8539 23.676 11.5623 23.6204C12.1705 25.5192 13.9356 26.9014 16.028 26.9403C14.3916 28.2227 12.3306 28.9867 10.0902 28.9867C9.70518 28.9867 9.32371 28.9642 8.95044 28.9197C11.0649 30.2766 13.5784 31.0677 16.2779 31.0677C25.071 31.0677 29.8797 23.7834 29.8797 17.4655C29.8797 17.2584 29.8751 17.052 29.8658 16.8473C30.8006 16.1735 31.6109 15.3318 32.2516 14.3731Z"
              fill="#FF585D"/>
    </g>
    <defs>
        <clipPath id="clip0">
            <rect width="40" height="40" fill="white"/>
        </clipPath>
    </defs>
</svg>
